<svg width="70" height="70" viewBox="0 0 70 70" fill="none" xmlns="http://www.w3.org/2000/svg">
<path d="M23.723 35.6696C23.723 34.2157 22.7129 33.3472 20.9319 33.3472C20.205 33.3472 19.7133 33.418 19.4551 33.4868V38.1565C19.7612 38.2253 20.1361 38.2502 20.6507 38.2502C22.5503 38.2502 23.723 37.288 23.723 35.6696Z" fill="#ED4C5C"/>
<path d="M34.7531 33.3931C33.9554 33.3931 33.4389 33.4638 33.1328 33.5346V43.8801C33.4389 43.9509 33.9305 43.9509 34.3763 43.9509C37.613 43.9738 39.725 42.1909 39.725 38.4147C39.7499 35.1301 37.8254 33.3931 34.7531 33.3931Z" fill="#ED4C5C"/>
<path d="M55.8864 27.3155H54.5894V21.0581C54.5883 21.0184 54.5845 20.9787 54.5779 20.9395C54.58 20.6878 54.491 20.4439 54.3273 20.2527L43.9149 8.36156L43.9072 8.3539C43.775 8.21041 43.6065 8.10532 43.4194 8.04974L43.362 8.03061C43.2826 8.01079 43.201 8.00052 43.1191 8H17.5289C16.3601 8 15.4113 8.95076 15.4113 10.1177V27.3155H14.1142C12.4423 27.3155 11.0879 28.6699 11.0879 30.3419V46.082C11.0879 47.752 12.4442 49.1084 14.1142 49.1084H15.4113V59.8843C15.4113 61.0512 16.3601 62.002 17.5289 62.002H52.4717C53.6386 62.002 54.5894 61.0512 54.5894 59.8843V49.1084H55.8864C57.5584 49.1084 58.9128 47.752 58.9128 46.082V30.3419C58.9128 28.6699 57.5565 27.3155 55.8864 27.3155ZM17.5289 10.1177H42.0593V20.9529C42.0593 21.5383 42.5337 22.0108 43.1191 22.0108H52.4736V27.3155H17.5289V10.1177ZM43.5266 38.2961C43.5266 41.3225 42.4247 43.4115 40.8962 44.7008C39.2319 46.0839 36.6991 46.742 33.6019 46.742C31.7482 46.742 30.4359 46.6234 29.5426 46.5086V30.977C30.8568 30.7666 32.5689 30.6499 34.3767 30.6499C37.3782 30.6499 39.3256 31.1893 40.8503 32.339C42.4935 33.5576 43.5266 35.505 43.5266 38.2961ZM15.9106 46.5794V30.977C17.0124 30.7895 18.562 30.6499 20.7428 30.6499C22.9485 30.6499 24.5209 31.0726 25.575 31.9163C26.5832 32.714 27.2623 34.0282 27.2623 35.5758C27.2623 37.1254 26.7477 38.4377 25.8084 39.3291C24.5879 40.4788 22.782 40.9953 20.6701 40.9953C20.2014 40.9953 19.7786 40.9724 19.4515 40.9246V46.5794H15.9106ZM52.4717 59.3104H17.5289V49.1084H52.4717V59.3104ZM55.5402 33.6992H49.4626V37.3128H55.1403V40.2225H49.4626V46.5794H45.8757V30.7666H55.5402V33.6992Z" fill="#ED4C5C"/>
</svg>
